solid ASCII
  facet normal -0.000000e+00 0.000000e+00 1.000000e+00
    outer loop
      vertex   -1.000000e+02 8.263039e+01 9.312353e+01
      vertex   -1.000000e+02 -8.263039e+01 9.312353e+01
      vertex   1.000000e+02 8.263039e+01 9.312353e+01
    endloop
  endfacet
  facet normal 0.000000e+00 0.000000e+00 1.000000e+00
    outer loop
      vertex   1.000000e+02 8.263039e+01 9.312353e+01
      vertex   -1.000000e+02 -8.263039e+01 9.312353e+01
      vertex   1.000000e+02 -8.263039e+01 9.312353e+01
    endloop
  endfacet
  facet normal 0.000000e+00 1.000000e+00 0.000000e+00
    outer loop
      vertex   -1.000000e+02 8.263039e+01 -9.312353e+01
      vertex   -1.000000e+02 8.263039e+01 9.312353e+01
      vertex   1.000000e+02 8.263039e+01 -9.312353e+01
    endloop
  endfacet
  facet normal 0.000000e+00 1.000000e+00 -0.000000e+00
    outer loop
      vertex   1.000000e+02 8.263039e+01 -9.312353e+01
      vertex   -1.000000e+02 8.263039e+01 9.312353e+01
      vertex   1.000000e+02 8.263039e+01 9.312353e+01
    endloop
  endfacet
  facet normal 0.000000e+00 0.000000e+00 -1.000000e+00
    outer loop
      vertex   -1.000000e+02 -8.263039e+01 -9.312353e+01
      vertex   -1.000000e+02 8.263039e+01 -9.312353e+01
      vertex   1.000000e+02 -8.263039e+01 -9.312353e+01
    endloop
  endfacet
  facet normal 0.000000e+00 0.000000e+00 -1.000000e+00
    outer loop
      vertex   1.000000e+02 -8.263039e+01 -9.312353e+01
      vertex   -1.000000e+02 8.263039e+01 -9.312353e+01
      vertex   1.000000e+02 8.263039e+01 -9.312353e+01
    endloop
  endfacet
  facet normal 0.000000e+00 -1.000000e+00 0.000000e+00
    outer loop
      vertex   -1.000000e+02 -8.263039e+01 9.312353e+01
      vertex   -1.000000e+02 -8.263039e+01 -9.312353e+01
      vertex   1.000000e+02 -8.263039e+01 9.312353e+01
    endloop
  endfacet
  facet normal 0.000000e+00 -1.000000e+00 -0.000000e+00
    outer loop
      vertex   1.000000e+02 -8.263039e+01 9.312353e+01
      vertex   -1.000000e+02 -8.263039e+01 -9.312353e+01
      vertex   1.000000e+02 -8.263039e+01 -9.312353e+01
    endloop
  endfacet
  facet normal 1.000000e+00 -0.000000e+00 0.000000e+00
    outer loop
      vertex   1.000000e+02 -8.263039e+01 9.312353e+01
      vertex   1.000000e+02 -8.263039e+01 -9.312353e+01
      vertex   1.000000e+02 8.263039e+01 9.312353e+01
    endloop
  endfacet
  facet normal 1.000000e+00 0.000000e+00 0.000000e+00
    outer loop
      vertex   1.000000e+02 8.263039e+01 9.312353e+01
      vertex   1.000000e+02 -8.263039e+01 -9.312353e+01
      vertex   1.000000e+02 8.263039e+01 -9.312353e+01
    endloop
  endfacet
  facet normal -1.000000e+00 0.000000e+00 0.000000e+00
    outer loop
      vertex   -1.000000e+02 -8.263039e+01 9.312353e+01
      vertex   -1.000000e+02 8.263039e+01 9.312353e+01
      vertex   -1.000000e+02 -8.263039e+01 -9.312353e+01
    endloop
  endfacet
  facet normal -1.000000e+00 0.000000e+00 0.000000e+00
    outer loop
      vertex   -1.000000e+02 -8.263039e+01 -9.312353e+01
      vertex   -1.000000e+02 8.263039e+01 9.312353e+01
      vertex   -1.000000e+02 8.263039e+01 -9.312353e+01
    endloop
  endfacet
endsolid
